# https://github.com/mikedh/trimesh

o Gamefield.stl
v -2.15414941 -7.69658301 -0.73340686
v -2.15500122 -7.69659180 -0.73987732
v -2.15469019 -7.72658984 -0.73987732
v -2.15414941 -7.69658301 -0.74634778
v -2.15376318 -7.72658057 -0.74662225
v -2.15165210 -7.69655713 -0.75237732
v -2.15105078 -7.72655225 -0.75286694
v -2.14767944 -7.69651562 -0.75755499
v -2.14675439 -7.72650781 -0.75814819
v -2.14250195 -7.69646191 -0.76152795
v -2.14119263 -7.72645020 -0.76207446
v -2.13647266 -7.69639941 -0.76402545
v -2.13477759 -7.72638330 -0.76435443
v -2.13000269 -7.69633252 -0.76487732
v -2.12798560 -7.72631299 -0.76481903
v -2.12353247 -7.69626514 -0.76402545
v -2.12132007 -7.72624414 -0.76343384
v -2.11750342 -7.69620264 -0.76152795
v -2.11527539 -7.72618115 -0.76030157
v -2.11232593 -7.69614893 -0.75755499
v -2.11029980 -7.72612988 -0.75565454
v -2.10835327 -7.69610791 -0.75237732
v -2.10676245 -7.72609326 -0.74983734
v -2.10585571 -7.69608203 -0.74634778
v -2.10492578 -7.72607422 -0.74328149
v -2.10500391 -7.69607324 -0.73987732
v -2.10492578 -7.72607422 -0.73647314
v -2.10585571 -7.69608203 -0.73340686
v -2.10676245 -7.72609326 -0.72991730
v -2.10835327 -7.69610791 -0.72737732
v -2.11029980 -7.72612988 -0.72410010
v -2.11232593 -7.69614893 -0.72219965
v -2.11527539 -7.72618115 -0.71945306
v -2.11750342 -7.69620264 -0.71822668
v -2.12132007 -7.72624414 -0.71632080
v -2.12353247 -7.69626514 -0.71572919
v -2.12798560 -7.72631299 -0.71493561
v -2.13000269 -7.69633252 -0.71487732
v -2.13477759 -7.72638330 -0.71540021
v -2.13647266 -7.69639941 -0.71572919
v -2.14119263 -7.72645020 -0.71768018
v -2.14250195 -7.69646191 -0.71822668
v -2.14675439 -7.72650781 -0.72160645
v -2.14767944 -7.69651562 -0.72219965
v -2.15105078 -7.72655225 -0.72688770
v -2.15165210 -7.69655713 -0.72737732
v -2.15376318 -7.72658057 -0.73313239
v -2.30414136 -7.69813818 -0.73340686
v -2.30499316 -7.69814697 -0.73987732
v -2.30468213 -7.72814551 -0.73987732
v -2.30414136 -7.69813818 -0.74634778
v -2.30375513 -7.72813574 -0.74662225
v -2.30164404 -7.69811230 -0.75237732
v -2.30104272 -7.72810791 -0.75286694
v -2.29767139 -7.69807129 -0.75755499
v -2.29674634 -7.72806299 -0.75814819
v -2.29249390 -7.69801758 -0.76152795
v -2.29118457 -7.72800537 -0.76207446
v -2.28646460 -7.69795508 -0.76402545
v -2.28476953 -7.72793896 -0.76435443
v -2.27999463 -7.69788770 -0.76487732
v -2.27797754 -7.72786865 -0.76481903
v -2.27352441 -7.69782080 -0.76402545
v -2.27131201 -7.72779932 -0.76343384
v -2.26749536 -7.69775830 -0.76152795
v -2.26526733 -7.72773682 -0.76030157
v -2.26231787 -7.69770459 -0.75755499
v -2.26029175 -7.72768506 -0.75565454
v -2.25834521 -7.69766309 -0.75237732
v -2.25675439 -7.72764844 -0.74983734
v -2.25584766 -7.69763721 -0.74634778
v -2.25491772 -7.72762939 -0.74328149
v -2.25499585 -7.69762842 -0.73987732
v -2.25491772 -7.72762939 -0.73647314
v -2.25584766 -7.69763721 -0.73340686
v -2.25675439 -7.72764844 -0.72991730
v -2.25834521 -7.69766309 -0.72737732
v -2.26029175 -7.72768506 -0.72410010
v -2.26231787 -7.69770459 -0.72219965
v -2.26526733 -7.72773682 -0.71945306
v -2.26749536 -7.69775830 -0.71822668
v -2.27131201 -7.72779932 -0.71632080
v -2.27352441 -7.69782080 -0.71572919
v -2.27797754 -7.72786865 -0.71493561
v -2.27999463 -7.69788770 -0.71487732
v -2.28476953 -7.72793896 -0.71540021
v -2.28646460 -7.69795508 -0.71572919
v -2.29118457 -7.72800537 -0.71768018
v -2.29249390 -7.69801758 -0.71822668
v -2.29674634 -7.72806299 -0.72160645
v -2.29767139 -7.69807129 -0.72219965
v -2.30104272 -7.72810791 -0.72688770
v -2.30164404 -7.69811230 -0.72737732
v -2.30375513 -7.72813574 -0.73313239
v -2.27999463 -7.69788770 -0.48987732
v -2.28310547 -7.39790381 -0.48987732
v -2.27999463 -7.69788770 -0.61487732
v -2.28310547 -7.39790381 -0.61487732
v -2.33310278 -7.39842236 -0.61487732
v -2.32999194 -7.69840625 -0.61487732
v -2.32999194 -7.69840625 -0.73987732
v -2.08000537 -7.69581396 -0.48987732
v -2.08000537 -7.69581396 -0.73987732
v -2.33310278 -7.39842236 -0.73987732
v -2.08311621 -7.39583008 -0.73987732
v -2.08311621 -7.39583008 -0.48987732
v 1.39872314 -7.52012402 -0.56112091
v 1.39763428 -7.31012695 -0.56112091
v 1.44072253 -7.51990625 -0.56112091
v 1.43963379 -7.30990918 -0.56112091
v 1.39872314 -7.52012402 -0.78987732
v 1.44072253 -7.51990625 -0.78987732
v 1.39944897 -7.66012207 -0.78987732
v 1.44144836 -7.65990430 -0.78987732
v 1.39944897 -7.66012207 -0.56112091
v 1.44144836 -7.65990430 -0.56112091
v 1.40053784 -7.87011914 -0.56112091
v 1.44253723 -7.86990137 -0.56112091
v 1.40053784 -7.87011914 -0.42112088
v 1.44253723 -7.86990137 -0.42112088
v 1.39944897 -7.66012207 -0.42112088
v 1.44144836 -7.65990430 -0.42112088
v 1.39944897 -7.66012207 -0.35112088
v 1.44144836 -7.65990430 -0.35112088
v 1.44072253 -7.51990625 -0.35112088
v 1.39872314 -7.52012402 -0.35112088
v 1.44062781 -7.50162891 -0.33853784
v 1.39862830 -7.50184668 -0.33853784
v 1.44054456 -7.48556982 -0.32322498
v 1.39854504 -7.48578760 -0.32322498
v 1.44047485 -7.47213135 -0.30556705
v 1.39847534 -7.47234912 -0.30556705
v 1.44042053 -7.46165186 -0.28600760
v 1.39842102 -7.46186963 -0.28600760
v 1.44038293 -7.45439404 -0.26503806
v 1.39838342 -7.45461182 -0.26503806
v 1.44036292 -7.45054102 -0.24318517
v 1.39836340 -7.45075879 -0.24318517
v 1.44036108 -7.45018896 -0.22099797
v 1.39836169 -7.45040674 -0.22099797
v 1.44037744 -7.45334668 -0.19903384
v 1.39837805 -7.45356445 -0.19903384
v 1.44041162 -7.45993555 -0.17784457
v 1.39841211 -7.46015332 -0.17784457
v 1.44046265 -7.46978906 -0.15796249
v 1.39846326 -7.47000684 -0.15796249
v 1.44052942 -7.48266064 -0.13988705
v 1.39853003 -7.48287842 -0.13988705
v 1.44061011 -7.49822607 -0.12407240
v 1.39861072 -7.49844385 -0.12407240
v 1.44070276 -7.51609473 -0.11091577
v 1.39870337 -7.51631250 -0.11091577
v 1.44080505 -7.53581787 -0.10074773
v 1.39880566 -7.53603564 -0.10074773
v 1.44091431 -7.55689941 -0.09382372
v 1.39891492 -7.55711719 -0.09382372
v 1.44102795 -7.57881055 -0.09031767
v 1.39902856 -7.57902832 -0.09031767
v 1.44114307 -7.60100000 -0.09031767
v 1.39914355 -7.60121777 -0.09031767
v 1.44125659 -7.62291113 -0.09382372
v 1.39925720 -7.62312891 -0.09382372
v 1.44136597 -7.64399268 -0.10074773
v 1.39936646 -7.64421045 -0.10074773
v 1.44146814 -7.66371582 -0.11091577
v 1.39946875 -7.66393359 -0.11091577
v 1.44156079 -7.68158447 -0.12407240
v 1.39956140 -7.68180225 -0.12407240
v 1.44164148 -7.69714990 -0.13988705
v 1.39964209 -7.69736768 -0.13988705
v 1.44170825 -7.71002148 -0.15796249
v 1.39970886 -7.71023926 -0.15796249
v 1.44175940 -7.71987500 -0.17784457
v 1.39975989 -7.72009277 -0.17784457
v 1.44179358 -7.72646338 -0.19903384
v 1.39979407 -7.72668115 -0.19903384
v 1.44180994 -7.72962158 -0.22099797
v 1.39981042 -7.72983936 -0.22099797
v 1.44180811 -7.72926953 -0.24318517
v 1.39980859 -7.72948730 -0.24318517
v 1.44178809 -7.72541602 -0.26503806
v 1.39978870 -7.72563379 -0.26503806
v 1.44175049 -7.71815869 -0.28600760
v 1.39975098 -7.71837646 -0.28600760
v 1.44169617 -7.70767920 -0.30556705
v 1.39969666 -7.70789697 -0.30556705
v 1.44162646 -7.69424072 -0.32322498
v 1.39962708 -7.69445850 -0.32322498
v 1.44154321 -7.67818164 -0.33853784
v 1.39954370 -7.67839941 -0.33853784
v 1.39872314 -7.52012402 -0.42112088
v 1.44072253 -7.51990625 -0.42112088
v 1.39763428 -7.31012695 -0.42112088
v 1.43963379 -7.30990918 -0.42112088
v 0.79504175 -5.24619629 -0.23947733
v 0.79504175 -5.24619629 -0.73947729
v 0.79354761 -5.22688379 -0.23947733
v 0.79354761 -5.22688379 -0.73947729
v 0.79464093 -5.20754492 -0.23947733
v 0.79464093 -5.20754492 -0.73947729
v 0.79830206 -5.18852441 -0.23947733
v 0.79830206 -5.18852441 -0.73947729
v 0.80446582 -5.17016113 -0.23947733
v 0.80446582 -5.17016113 -0.73947729
v 0.81302209 -5.15278369 -0.23947733
v 0.81302209 -5.15278369 -0.73947729
v 0.82381824 -5.13670166 -0.23947733
v 0.82381824 -5.13670166 -0.73947729
v 0.83666156 -5.12220166 -0.23947733
v 0.83666156 -5.12220166 -0.73947729
v 0.85132294 -5.10954346 -0.23947733
v 0.85132294 -5.10954346 -0.73947729
v 0.86754065 -5.09895215 -0.23947733
v 0.86754065 -5.09895215 -0.73947729
v 0.88502539 -5.09061670 -0.23947733
v 0.88502539 -5.09061670 -0.73947729
v 0.90346509 -5.08468652 -0.23947733
v 0.90346509 -5.08468652 -0.73947729
v 0.92253070 -5.08126660 -0.23947733
v 0.92253070 -5.08126660 -0.73947729
v 0.94188202 -5.08041895 -0.23947733
v 0.94188202 -5.08041895 -0.73947729
v 0.96117365 -5.08215771 -0.23947733
v 0.96117365 -5.08215771 -0.73947729
v 0.98006140 -5.08645264 -0.23947733
v 0.98006140 -5.08645264 -0.73947729
v 0.99820825 -5.09322656 -0.23947733
v 0.99820825 -5.09322656 -0.73947729
v 1.01529022 -5.10235840 -0.23947733
v 1.01529022 -5.10235840 -0.73947729
v 1.03100269 -5.11368604 -0.23947733
v 1.03100269 -5.11368604 -0.73947729
v 1.04506506 -5.12700684 -0.23947733
v 1.04506506 -5.12700684 -0.73947729
v 1.05722644 -5.14208301 -0.23947733
v 1.05722644 -5.14208301 -0.73947729
v 1.06727002 -5.15864551 -0.23947733
v 1.06727002 -5.15864551 -0.73947729
v 1.07501624 -5.17639893 -0.23947733
v 1.07501624 -5.17639893 -0.73947729
v 1.08032715 -5.19502637 -0.23947733
v 1.08032715 -5.19502637 -0.73947729
v 1.08310779 -5.21419580 -0.23947733
v 1.08310779 -5.21419580 -0.73947729
v 1.08330872 -5.23356445 -0.23947733
v 1.08330872 -5.23356445 -0.73947729
v 1.08092615 -5.25278711 -0.23947733
v 1.08092615 -5.25278711 -0.73947729
v 1.07600269 -5.27152100 -0.23947733
v 1.07600269 -5.27152100 -0.73947729
v 1.06862622 -5.28943115 -0.23947733
v 1.06862622 -5.28943115 -0.73947729
v 1.05892834 -5.30619873 -0.23947733
v 1.05892834 -5.30619873 -0.73947729
v 1.04708215 -5.32152393 -0.23947733
v 1.04708215 -5.32152393 -0.73947729
v 1.03329907 -5.33513330 -0.23947733
v 1.03329907 -5.33513330 -0.73947729
v 1.01782495 -5.34678418 -0.23947733
v 1.01782495 -5.34678418 -0.73947729
v 1.00093597 -5.35626855 -0.23947733
v 1.00093597 -5.35626855 -0.73947729
v 0.98293353 -5.36341748 -0.23947733
v 0.98293353 -5.36341748 -0.73947729
v 0.96413892 -5.36810254 -0.23947733
v 0.96413892 -5.36810254 -0.73947729
v 0.94488751 -5.37024121 -0.23947733
v 0.94488751 -5.37024121 -0.73947729
v 0.92552277 -5.36979492 -0.23947733
v 0.92552277 -5.36979492 -0.73947729
v 0.90639032 -5.36677148 -0.23947733
v 0.90639032 -5.36677148 -0.73947729
v 0.88783160 -5.36122461 -0.23947733
v 0.88783160 -5.36122461 -0.73947729
v 0.87017780 -5.35325391 -0.23947733
v 0.87017780 -5.35325391 -0.73947729
v 0.85374390 -5.34300098 -0.23947733
v 0.85374390 -5.34300098 -0.73947729
v 0.83882318 -5.33064941 -0.23947733
v 0.83882318 -5.33064941 -0.73947729
v 0.82568188 -5.31641943 -0.23947733
v 0.82568188 -5.31641943 -0.73947729
v 0.81455457 -5.30056445 -0.23947733
v 0.81455457 -5.30056445 -0.73947729
v 0.80563977 -5.28336816 -0.23947733
v 0.80563977 -5.28336816 -0.73947729
v 0.79909656 -5.26513672 -0.23947733
v 0.79909656 -5.26513672 -0.73947729
v 0.78962811 -5.20734473 -0.23947733
v 0.78962811 -5.20734473 -0.73947729
v 0.78854791 -5.22693555 -0.23947733
v 0.78854791 -5.22693555 -0.73947729
v 0.79003412 -5.24650049 -0.23947733
v 0.79003412 -5.24650049 -0.73947729
v 0.79406134 -5.26570361 -0.23947733
v 0.79406134 -5.26570361 -0.73947729
v 0.80056061 -5.28421680 -0.23947733
v 0.80056061 -5.28421680 -0.73947729
v 0.80942072 -5.30172314 -0.23947733
v 0.80942072 -5.30172314 -0.73947729
v 0.82049011 -5.31792383 -0.23947733
v 0.82049011 -5.31792383 -0.73947729
v 0.83357941 -5.33254053 -0.23947733
v 0.83357941 -5.33254053 -0.73947729
v 0.84846454 -5.34532373 -0.23947733
v 0.84846454 -5.34532373 -0.73947729
v 0.86489093 -5.35605469 -0.23947733
v 0.86489093 -5.35605469 -0.73947729
v 0.88257745 -5.36455029 -0.23947733
v 0.88257745 -5.36455029 -0.73947729
v 0.90122150 -5.37066406 -0.23947733
v 0.90122150 -5.37066406 -0.73947729
v 0.92050409 -5.37429199 -0.23947733
v 0.92050409 -5.37429199 -0.73947729
v 0.94009528 -5.37537207 -0.23947733
v 0.94009528 -5.37537207 -0.73947729
v 0.95965985 -5.37388623 -0.23947733
v 0.95965985 -5.37388623 -0.73947729
v 0.97886304 -5.36985889 -0.23947733
v 0.97886304 -5.36985889 -0.73947729
v 0.99737628 -5.36335937 -0.23947733
v 0.99737628 -5.36335937 -0.73947729
v 1.01488287 -5.35449951 -0.23947733
v 1.01488287 -5.35449951 -0.73947729
v 1.03108313 -5.34343018 -0.23947733
v 1.03108313 -5.34343018 -0.73947729
v 1.04569995 -5.33034082 -0.23947733
v 1.04569995 -5.33034082 -0.73947729
v 1.05848328 -5.31545557 -0.23947733
v 1.05848328 -5.31545557 -0.73947729
v 1.06921436 -5.29902930 -0.23947733
v 1.06921436 -5.29902930 -0.73947729
v 1.07770959 -5.28134277 -0.23947733
v 1.07770959 -5.28134277 -0.73947729
v 1.08382349 -5.26269873 -0.23947733
v 1.08382349 -5.26269873 -0.73947729
v 1.08745154 -5.24341602 -0.23947733
v 1.08745154 -5.24341602 -0.73947729
v 1.08853174 -5.22382471 -0.23947733
v 1.08853174 -5.22382471 -0.73947729
v 1.08704553 -5.20426025 -0.23947733
v 1.08704553 -5.20426025 -0.73947729
v 1.08301831 -5.18505713 -0.23947733
v 1.08301831 -5.18505713 -0.73947729
v 1.07651904 -5.16654395 -0.23947733
v 1.07651904 -5.16654395 -0.73947729
v 1.06765894 -5.14903760 -0.23947733
v 1.06765894 -5.14903760 -0.73947729
v 1.05658960 -5.13283691 -0.23947733
v 1.05658960 -5.13283691 -0.73947729
v 1.04350037 -5.11822021 -0.23947733
v 1.04350037 -5.11822021 -0.73947729
v 1.02861511 -5.10543701 -0.23947733
v 1.02861511 -5.10543701 -0.73947729
v 1.01218878 -5.09470605 -0.23947733
v 1.01218878 -5.09470605 -0.73947729
v 0.99450226 -5.08621045 -0.23947733
v 0.99450226 -5.08621045 -0.73947729
v 0.97585822 -5.08009668 -0.23947733
v 0.97585822 -5.08009668 -0.73947729
v 0.95657562 -5.07646875 -0.23947733
v 0.95657562 -5.07646875 -0.73947729
v 0.93698444 -5.07538818 -0.23947733
v 0.93698444 -5.07538818 -0.73947729
v 0.91741986 -5.07687451 -0.23947733
v 0.91741986 -5.07687451 -0.73947729
v 0.89821667 -5.08090186 -0.23947733
v 0.89821667 -5.08090186 -0.73947729
v 0.87970337 -5.08740088 -0.23947733
v 0.87970337 -5.08740088 -0.73947729
v 0.86219684 -5.09626123 -0.23947733
v 0.86219684 -5.09626123 -0.73947729
v 0.84599652 -5.10733057 -0.23947733
v 0.84599652 -5.10733057 -0.73947729
v 0.83137970 -5.12041992 -0.23947733
v 0.83137970 -5.12041992 -0.73947729
v 0.81859637 -5.13530518 -0.23947733
v 0.81859637 -5.13530518 -0.73947729
v 0.80786530 -5.15173145 -0.23947733
v 0.80786530 -5.15173145 -0.73947729
v 0.79937012 -5.16941797 -0.23947733
v 0.79937012 -5.16941797 -0.73947729
v 0.79325616 -5.18806201 -0.23947733
v 0.79325616 -5.18806201 -0.73947729
v 1.80069116 -5.78579687 -0.23947733
v 1.80069116 -5.78579687 -0.73947729
v 1.79919714 -5.76648486 -0.23947733
v 1.79919714 -5.76648486 -0.73947729
v 1.80029041 -5.74714600 -0.23947733
v 1.80029041 -5.74714600 -0.73947729
v 1.80395154 -5.72812500 -0.23947733
v 1.80395154 -5.72812500 -0.73947729
v 1.81011523 -5.70976221 -0.23947733
v 1.81011523 -5.70976221 -0.73947729
v 1.81867151 -5.69238477 -0.23947733
v 1.81867151 -5.69238477 -0.73947729
v 1.82946765 -5.67630225 -0.23947733
v 1.82946765 -5.67630225 -0.73947729
v 1.84231104 -5.66180273 -0.23947733
v 1.84231104 -5.66180273 -0.73947729
v 1.85697241 -5.64914453 -0.23947733
v 1.85697241 -5.64914453 -0.73947729
v 1.87319019 -5.63855322 -0.23947733
v 1.87319019 -5.63855322 -0.73947729
v 1.89067480 -5.63021777 -0.23947733
v 1.89067480 -5.63021777 -0.73947729
v 1.90911450 -5.62428760 -0.23947733
v 1.90911450 -5.62428760 -0.73947729
v 1.92818018 -5.62086768 -0.23947733
v 1.92818018 -5.62086768 -0.73947729
v 1.94753149 -5.62002002 -0.23947733
v 1.94753149 -5.62002002 -0.73947729
v 1.96682312 -5.62175879 -0.23947733
v 1.96682312 -5.62175879 -0.73947729
v 1.98571082 -5.62605322 -0.23947733
v 1.98571082 -5.62605322 -0.73947729
v 2.00385767 -5.63282715 -0.23947733
v 2.00385767 -5.63282715 -0.73947729
v 2.02093970 -5.64195947 -0.23947733
v 2.02093970 -5.64195947 -0.73947729
v 2.03665210 -5.65328711 -0.23947733
v 2.03665210 -5.65328711 -0.73947729
v 2.05071460 -5.66660742 -0.23947733
v 2.05071460 -5.66660742 -0.73947729
v 2.06287598 -5.68168359 -0.23947733
v 2.06287598 -5.68168359 -0.73947729
v 2.07291943 -5.69824658 -0.23947733
v 2.07291943 -5.69824658 -0.73947729
v 2.08066577 -5.71600000 -0.23947733
v 2.08066577 -5.71600000 -0.73947729
v 2.08597656 -5.73462744 -0.23947733
v 2.08597656 -5.73462744 -0.73947729
v 2.08875732 -5.75379687 -0.23947733
v 2.08875732 -5.75379687 -0.73947729
v 2.08895825 -5.77316553 -0.23947733
v 2.08895825 -5.77316553 -0.73947729
v 2.08657568 -5.79238818 -0.23947733
v 2.08657568 -5.79238818 -0.73947729
v 2.08165210 -5.81112207 -0.23947733
v 2.08165210 -5.81112207 -0.73947729
v 2.07427563 -5.82903223 -0.23947733
v 2.07427563 -5.82903223 -0.73947729
v 2.06457788 -5.84579980 -0.23947733
v 2.06457788 -5.84579980 -0.73947729
v 2.05273169 -5.86112451 -0.23947733
v 2.05273169 -5.86112451 -0.73947729
v 2.03894849 -5.87473438 -0.23947733
v 2.03894849 -5.87473438 -0.73947729
v 2.02347437 -5.88638525 -0.23947733
v 2.02347437 -5.88638525 -0.73947729
v 2.00658545 -5.89586963 -0.23947733
v 2.00658545 -5.89586963 -0.73947729
v 1.98858301 -5.90301807 -0.23947733
v 1.98858301 -5.90301807 -0.73947729
v 1.96978833 -5.90770361 -0.23947733
v 1.96978833 -5.90770361 -0.73947729
v 1.95053699 -5.90984229 -0.23947733
v 1.95053699 -5.90984229 -0.73947729
v 1.93117224 -5.90939600 -0.23947733
v 1.93117224 -5.90939600 -0.73947729
v 1.91203979 -5.90637207 -0.23947733
v 1.91203979 -5.90637207 -0.73947729
v 1.89348108 -5.90082568 -0.23947733
v 1.89348108 -5.90082568 -0.73947729
v 1.87582727 -5.89285498 -0.23947733
v 1.87582727 -5.89285498 -0.73947729
v 1.85939331 -5.88260205 -0.23947733
v 1.85939331 -5.88260205 -0.73947729
v 1.84447266 -5.87025049 -0.23947733
v 1.84447266 -5.87025049 -0.73947729
v 1.83133130 -5.85602002 -0.23947733
v 1.83133130 -5.85602002 -0.73947729
v 1.82020398 -5.84016553 -0.23947733
v 1.82020398 -5.84016553 -0.73947729
v 1.81128918 -5.82296875 -0.23947733
v 1.81128918 -5.82296875 -0.73947729
v 1.80474597 -5.80473779 -0.23947733
v 1.80474597 -5.80473779 -0.73947729
v 1.79527759 -5.74694531 -0.23947733
v 1.79527759 -5.74694531 -0.73947729
v 1.79419739 -5.76653662 -0.23947733
v 1.79419739 -5.76653662 -0.73947729
v 1.79568359 -5.78610107 -0.23947733
v 1.79568359 -5.78610107 -0.73947729
v 1.79971082 -5.80530469 -0.23947733
v 1.79971082 -5.80530469 -0.73947729
v 1.80621008 -5.82381787 -0.23947733
v 1.80621008 -5.82381787 -0.73947729
v 1.81507019 -5.84132422 -0.23947733
v 1.81507019 -5.84132422 -0.73947729
v 1.82613953 -5.85752441 -0.23947733
v 1.82613953 -5.85752441 -0.73947729
v 1.83922888 -5.87214160 -0.23947733
v 1.83922888 -5.87214160 -0.73947729
v 1.85411401 -5.88492480 -0.23947733
v 1.85411401 -5.88492480 -0.73947729
v 1.87054041 -5.89565576 -0.23947733
v 1.87054041 -5.89565576 -0.73947729
v 1.88822693 -5.90415088 -0.23947733
v 1.88822693 -5.90415088 -0.73947729
v 1.90687097 -5.91026514 -0.23947733
v 1.90687097 -5.91026514 -0.73947729
v 1.92615356 -5.91389307 -0.23947733
v 1.92615356 -5.91389307 -0.73947729
v 1.94574475 -5.91497314 -0.23947733
v 1.94574475 -5.91497314 -0.73947729
v 1.96530933 -5.91348682 -0.23947733
v 1.96530933 -5.91348682 -0.73947729
v 1.98451245 -5.90945996 -0.23947733
v 1.98451245 -5.90945996 -0.73947729
v 2.00302576 -5.90296045 -0.23947733
v 2.00302576 -5.90296045 -0.73947729
v 2.02053235 -5.89410059 -0.23947733
v 2.02053235 -5.89410059 -0.73947729
v 2.03673254 -5.88303125 -0.23947733
v 2.03673254 -5.88303125 -0.73947729
v 2.05134937 -5.86994189 -0.23947733
v 2.05134937 -5.86994189 -0.73947729
v 2.06413281 -5.85505664 -0.23947733
v 2.06413281 -5.85505664 -0.73947729
v 2.07486377 -5.83863037 -0.23947733
v 2.07486377 -5.83863037 -0.73947729
v 2.08335913 -5.82094385 -0.23947733
v 2.08335913 -5.82094385 -0.73947729
v 2.08947290 -5.80229980 -0.23947733
v 2.08947290 -5.80229980 -0.73947729
v 2.09310107 -5.78301709 -0.23947733
v 2.09310107 -5.78301709 -0.73947729
v 2.09418115 -5.76342578 -0.23947733
v 2.09418115 -5.76342578 -0.73947729
v 2.09269507 -5.74386133 -0.23947733
v 2.09269507 -5.74386133 -0.73947729
v 2.08866772 -5.72465820 -0.23947733
v 2.08866772 -5.72465820 -0.73947729
v 2.08216846 -5.70614502 -0.23947733
v 2.08216846 -5.70614502 -0.73947729
v 2.07330835 -5.68863818 -0.23947733
v 2.07330835 -5.68863818 -0.73947729
v 2.06223901 -5.67243799 -0.23947733
v 2.06223901 -5.67243799 -0.73947729
v 2.04914966 -5.65782129 -0.23947733
v 2.04914966 -5.65782129 -0.73947729
v 2.03426465 -5.64503760 -0.23947733
v 2.03426465 -5.64503760 -0.73947729
v 2.01783826 -5.63430664 -0.23947733
v 2.01783826 -5.63430664 -0.73947729
v 2.00015173 -5.62581152 -0.23947733
v 2.00015173 -5.62581152 -0.73947729
v 1.98150769 -5.61969775 -0.23947733
v 1.98150769 -5.61969775 -0.73947729
v 1.96222510 -5.61606934 -0.23947733
v 1.96222510 -5.61606934 -0.73947729
v 1.94263391 -5.61498926 -0.23947733
v 1.94263391 -5.61498926 -0.73947729
v 1.92306934 -5.61647559 -0.23947733
v 1.92306934 -5.61647559 -0.73947729
v 1.90386609 -5.62050293 -0.23947733
v 1.90386609 -5.62050293 -0.73947729
v 1.88535278 -5.62700195 -0.23947733
v 1.88535278 -5.62700195 -0.73947729
v 1.86784631 -5.63586230 -0.23947733
v 1.86784631 -5.63586230 -0.73947729
v 1.85164600 -5.64693164 -0.23947733
v 1.85164600 -5.64693164 -0.73947729
v 1.83702917 -5.66002100 -0.23947733
v 1.83702917 -5.66002100 -0.73947729
v 1.82424585 -5.67490576 -0.23947733
v 1.82424585 -5.67490576 -0.73947729
v 1.81351477 -5.69133252 -0.23947733
v 1.81351477 -5.69133252 -0.73947729
v 1.80501953 -5.70901904 -0.23947733
v 1.80501953 -5.70901904 -0.73947729
v 1.79890564 -5.72766309 -0.23947733
v 1.79890564 -5.72766309 -0.73947729
v 0.80604736 -6.30748584 -0.73947729
v 0.80604736 -6.30748584 -0.23947733
v 0.80495404 -6.32682471 -0.73947729
v 0.80495404 -6.32682471 -0.23947733
v 0.80644818 -6.34613672 -0.73947729
v 0.80644818 -6.34613672 -0.23947733
v 0.81050299 -6.36507764 -0.73947729
v 0.81050299 -6.36507764 -0.23947733
v 0.81704620 -6.38330908 -0.73947729
v 0.81704620 -6.38330908 -0.23947733
v 0.82596100 -6.40050537 -0.73947729
v 0.82596100 -6.40050537 -0.23947733
v 0.83708832 -6.41636035 -0.73947729
v 0.83708832 -6.41636035 -0.23947733
v 0.85022961 -6.43059033 -0.73947729
v 0.85022961 -6.43059033 -0.23947733
v 0.86515033 -6.44294189 -0.73947729
v 0.86515033 -6.44294189 -0.23947733
v 0.88158423 -6.45319482 -0.73947729
v 0.88158423 -6.45319482 -0.23947733
v 0.89923804 -6.46116553 -0.73947729
v 0.89923804 -6.46116553 -0.23947733
v 0.91779675 -6.46671240 -0.73947729
v 0.91779675 -6.46671240 -0.23947733
v 0.93692920 -6.46973584 -0.73947729
v 0.93692920 -6.46973584 -0.23947733
v 0.95629395 -6.47018213 -0.73947729
v 0.95629395 -6.47018213 -0.23947733
v 0.97554535 -6.46804346 -0.73947729
v 0.97554535 -6.46804346 -0.23947733
v 0.99433997 -6.46335840 -0.73947729
v 0.99433997 -6.46335840 -0.23947733
v 1.01234241 -6.45620947 -0.73947729
v 1.01234241 -6.45620947 -0.23947733
v 1.02923132 -6.44672510 -0.73947729
v 1.02923132 -6.44672510 -0.23947733
v 1.04470544 -6.43507422 -0.73947729
v 1.04470544 -6.43507422 -0.23947733
v 1.05848865 -6.42146484 -0.73947729
v 1.05848865 -6.42146484 -0.23947733
v 1.07033484 -6.40613965 -0.73947729
v 1.07033484 -6.40613965 -0.23947733
v 1.08003271 -6.38937207 -0.73947729
v 1.08003271 -6.38937207 -0.23947733
v 1.08740918 -6.37146191 -0.73947729
v 1.08740918 -6.37146191 -0.23947733
v 1.09233252 -6.35272803 -0.73947729
v 1.09233252 -6.35272803 -0.23947733
v 1.09471509 -6.33350537 -0.73947729
v 1.09471509 -6.33350537 -0.23947733
v 1.09451428 -6.31413672 -0.73947729
v 1.09451428 -6.31413672 -0.23947733
v 1.09173364 -6.29496729 -0.73947729
v 1.09173364 -6.29496729 -0.23947733
v 1.08642273 -6.27633984 -0.73947729
v 1.08642273 -6.27633984 -0.23947733
v 1.07867639 -6.25858643 -0.73947729
v 1.07867639 -6.25858643 -0.23947733
v 1.06863293 -6.24202393 -0.73947729
v 1.06863293 -6.24202393 -0.23947733
v 1.05647144 -6.22694775 -0.73947729
v 1.05647144 -6.22694775 -0.23947733
v 1.04240906 -6.21362695 -0.73947729
v 1.04240906 -6.21362695 -0.23947733
v 1.02669666 -6.20229932 -0.73947729
v 1.02669666 -6.20229932 -0.23947733
v 1.00961469 -6.19316699 -0.73947729
v 1.00961469 -6.19316699 -0.23947733
v 0.99146783 -6.18639355 -0.73947729
v 0.99146783 -6.18639355 -0.23947733
v 0.97258008 -6.18209863 -0.73947729
v 0.97258008 -6.18209863 -0.23947733
v 0.95328845 -6.18035986 -0.73947729
v 0.95328845 -6.18035986 -0.23947733
v 0.93393713 -6.18120752 -0.73947729
v 0.93393713 -6.18120752 -0.23947733
v 0.91487152 -6.18462744 -0.73947729
v 0.91487152 -6.18462744 -0.23947733
v 0.89643182 -6.19055762 -0.73947729
v 0.89643182 -6.19055762 -0.23947733
v 0.87894708 -6.19889307 -0.73947729
v 0.87894708 -6.19889307 -0.23947733
v 0.86272937 -6.20948437 -0.73947729
v 0.86272937 -6.20948437 -0.23947733
v 0.84806799 -6.22214258 -0.73947729
v 0.84806799 -6.22214258 -0.23947733
v 0.83522467 -6.23664209 -0.73947729
v 0.83522467 -6.23664209 -0.23947733
v 0.82442853 -6.25272461 -0.73947729
v 0.82442853 -6.25272461 -0.23947733
v 0.81587225 -6.27010205 -0.73947729
v 0.81587225 -6.27010205 -0.23947733
v 0.80970850 -6.28846533 -0.73947729
v 0.80970850 -6.28846533 -0.23947733
v 0.80144055 -6.34644141 -0.73947729
v 0.80144055 -6.34644141 -0.23947733
v 0.79995435 -6.32687646 -0.73947729
v 0.79995435 -6.32687646 -0.23947733
v 0.80103455 -6.30728564 -0.73947729
v 0.80103455 -6.30728564 -0.23947733
v 0.80466260 -6.28800293 -0.73947729
v 0.80466260 -6.28800293 -0.23947733
v 0.81077655 -6.26935889 -0.73947729
v 0.81077655 -6.26935889 -0.23947733
v 0.81927173 -6.25167236 -0.73947729
v 0.81927173 -6.25167236 -0.23947733
v 0.83000281 -6.23524609 -0.73947729
v 0.83000281 -6.23524609 -0.23947733
v 0.84278613 -6.22036084 -0.73947729
v 0.84278613 -6.22036084 -0.23947733
v 0.85740295 -6.20727148 -0.73947729
v 0.85740295 -6.20727148 -0.23947733
v 0.87360327 -6.19620215 -0.73947729
v 0.87360327 -6.19620215 -0.23947733
v 0.89110980 -6.18734180 -0.73947729
v 0.89110980 -6.18734180 -0.23947733
v 0.90962311 -6.18084277 -0.73947729
v 0.90962311 -6.18084277 -0.23947733
v 0.92882629 -6.17681543 -0.73947729
v 0.92882629 -6.17681543 -0.23947733
v 0.94839087 -6.17532910 -0.73947729
v 0.94839087 -6.17532910 -0.23947733
v 0.96798206 -6.17640967 -0.73947729
v 0.96798206 -6.17640967 -0.23947733
v 0.98726465 -6.18003760 -0.73947729
v 0.98726465 -6.18003760 -0.23947733
v 1.00590869 -6.18615137 -0.73947729
v 1.00590869 -6.18615137 -0.23947733
v 1.02359521 -6.19464648 -0.73947729
v 1.02359521 -6.19464648 -0.23947733
v 1.04002161 -6.20537793 -0.73947729
v 1.04002161 -6.20537793 -0.23947733
v 1.05490674 -6.21816113 -0.73947729
v 1.05490674 -6.21816113 -0.23947733
v 1.06799597 -6.23277783 -0.73947729
v 1.06799597 -6.23277783 -0.23947733
v 1.07906543 -6.24897803 -0.73947729
v 1.07906543 -6.24897803 -0.23947733
v 1.08792554 -6.26648486 -0.73947729
v 1.08792554 -6.26648486 -0.23947733
v 1.09442480 -6.28499805 -0.73947729
v 1.09442480 -6.28499805 -0.23947733
v 1.09845203 -6.30420117 -0.73947729
v 1.09845203 -6.30420117 -0.23947733
v 1.09993823 -6.32376563 -0.73947729
v 1.09993823 -6.32376563 -0.23947733
v 1.09885803 -6.34335693 -0.73947729
v 1.09885803 -6.34335693 -0.23947733
v 1.09522998 -6.36263965 -0.73947729
v 1.09522998 -6.36263965 -0.23947733
v 1.08911597 -6.38128369 -0.73947729
v 1.08911597 -6.38128369 -0.23947733
v 1.08062085 -6.39897021 -0.73947729
v 1.08062085 -6.39897021 -0.23947733
v 1.06988977 -6.41539648 -0.73947729
v 1.06988977 -6.41539648 -0.23947733
v 1.05710645 -6.43028174 -0.73947729
v 1.05710645 -6.43028174 -0.23947733
v 1.04248962 -6.44337109 -0.73947729
v 1.04248962 -6.44337109 -0.23947733
v 1.02628931 -6.45444043 -0.73947729
v 1.02628931 -6.45444043 -0.23947733
v 1.00878271 -6.46330029 -0.73947729
v 1.00878271 -6.46330029 -0.23947733
v 0.99026947 -6.46979980 -0.73947729
v 0.99026947 -6.46979980 -0.23947733
v 0.97106628 -6.47382715 -0.73947729
v 0.97106628 -6.47382715 -0.23947733
v 0.95150171 -6.47531299 -0.73947729
v 0.95150171 -6.47531299 -0.23947733
v 0.93191052 -6.47423291 -0.73947729
v 0.93191052 -6.47423291 -0.23947733
v 0.91262793 -6.47060498 -0.73947729
v 0.91262793 -6.47060498 -0.23947733
v 0.89398389 -6.46449072 -0.73947729
v 0.89398389 -6.46449072 -0.23947733
v 0.87629736 -6.45599561 -0.73947729
v 0.87629736 -6.45599561 -0.23947733
v 0.85987097 -6.44526465 -0.73947729
v 0.85987097 -6.44526465 -0.23947733
v 0.84498584 -6.43248145 -0.73947729
v 0.84498584 -6.43248145 -0.23947733
v 0.83189655 -6.41786475 -0.73947729
v 0.83189655 -6.41786475 -0.23947733
v 0.82082715 -6.40166406 -0.73947729
v 0.82082715 -6.40166406 -0.23947733
v 0.81196704 -6.38415771 -0.73947729
v 0.81196704 -6.38415771 -0.23947733
v 0.80546777 -6.36564453 -0.73947729
v 0.80546777 -6.36564453 -0.23947733
v -1.30645447 -7.93780566 -0.73687732
v -0.74648456 -7.93199854 -0.73687732
v -1.31352649 -7.25584229 -0.73687732
v -0.75355658 -7.25003516 -0.73687732
v -0.74648456 -7.93199854 -0.25787732
v -1.30645447 -7.93780566 -0.25787732
v -1.33152539 -7.25602881 -0.73887732
v -1.89149536 -7.26183594 -0.73887732
v -1.32445337 -7.93799219 -0.73887732
v -1.88442334 -7.94379932 -0.73887732
v -1.33152539 -7.25602881 -0.25787732
v -1.32445337 -7.93799219 -0.25787732
v -1.88442334 -7.94379932 -0.25787732
v -1.89168201 -7.24383691 -0.25787732
v -1.89168201 -7.24383691 -0.73787732
v -1.89168201 -7.24383691 -0.73987732
v -1.89149536 -7.26183594 -0.73987732
v -1.69169263 -7.24176270 -0.73987732
v -1.69169263 -7.24176270 -0.73787732
v -1.69749963 -6.68179297 -0.73987732
v -1.69749963 -6.68179297 -0.73787732
v -2.39165503 -7.24902148 -0.73787732
v -2.39746191 -6.68905176 -0.73787732
v -2.39165503 -7.24902148 -0.25787732
v -2.39746191 -6.68905176 -0.25787732
v -1.36951733 -6.67839160 -0.25787732
v -1.36951733 -6.67839160 -0.73987732
v -2.31694922 -6.54520898 -0.25787732
v -2.32135620 -6.12023193 -0.25787732
v -2.21902856 -6.34418262 -0.25787732
v -2.02137231 -6.11712109 -0.25787732
v -2.11903394 -6.34314600 -0.25787732
v -2.01696533 -6.54209814 -0.25787732
v -2.11799683 -6.44314062 -0.25787732
v -2.21799146 -6.44417725 -0.25787732
v -2.03185596 -5.10617529 -0.25787732
v -2.02744885 -5.53115283 -0.25787732
v -2.12977661 -5.30720166 -0.25787732
v -2.32743286 -5.53426367 -0.25787732
v -2.22977124 -5.30823828 -0.25787732
v -2.33183984 -5.10928613 -0.25787732
v -2.23080811 -5.20824365 -0.25787732
v -2.13081372 -5.20720703 -0.25787732
v -2.02726221 -5.54915186 -0.25787732
v -2.22491846 -5.77621338 -0.25787732
v -2.32724609 -5.55226270 -0.25787732
v -2.22388135 -5.87620801 -0.25787732
v -2.32154297 -6.10223291 -0.25787732
v -2.12388672 -5.87517090 -0.25787732
v -2.02155908 -6.09912207 -0.25787732
v -2.12492383 -5.77517676 -0.25787732
v -2.11903394 -6.34314600 -0.15787732
v -2.11799683 -6.44314062 -0.15787732
v -2.21902856 -6.34418262 -0.15787732
v -2.21799146 -6.44417725 -0.15787732
v -2.13081372 -5.20720703 -0.15787732
v -2.12977661 -5.30720166 -0.15787732
v -2.23080811 -5.20824365 -0.15787732
v -2.22977124 -5.30823828 -0.15787732
v -2.12492383 -5.77517676 -0.15787732
v -2.12388672 -5.87517090 -0.15787732
v -2.22491846 -5.77621338 -0.15787732
v -2.22388135 -5.87620801 -0.15787732
v -2.03185596 -5.10617529 -0.15787732
v -2.33183984 -5.10928613 -0.15787732
v -2.31694922 -6.54520898 -0.15787732
v -2.01696533 -6.54209814 -0.15787732
v 1.14208435 -6.04831396 -0.73947729
v 1.14208435 -6.04831396 -0.73887732
v 0.64211121 -6.05349854 -0.73947729
v 0.64211121 -6.05349854 -0.73787732
v 1.14208435 -6.04831396 -0.73787732
v 1.13638110 -5.49834375 -0.73947729
v 0.63640796 -5.50352832 -0.73947729
v 1.13638110 -5.49834375 -0.73887732
v 0.63640796 -5.50352832 -0.73787732
v 1.13638110 -5.49834375 -0.73787732
v 1.14778748 -6.59828418 -0.73947729
v 1.14778748 -6.59828418 -0.73887732
v 1.63065100 -4.94318799 -0.73887732
v 1.63635425 -5.49315869 -0.73887732
v 1.63065100 -4.94318799 -0.73787732
v 1.63635425 -5.49315869 -0.73787732
v 1.63635425 -5.49315869 -0.73947729
v 2.13632739 -5.48797412 -0.73947729
v 2.13632739 -5.48797412 -0.73787732
v 2.13062402 -4.93800342 -0.73787732
v -0.75355658 -7.25003516 -0.73987732
v -0.75374323 -7.23203613 -0.73987732
v -0.68174695 -7.23128955 -0.73987732
v -0.69115210 -6.32433838 -0.73987732
v -1.38037415 -5.63144824 -0.73987732
v -0.67315320 -6.32415186 -0.73987732
v 0.01955055 -5.61693066 -0.73987732
v 0.03003410 -6.62787646 -0.73987732
v -0.66356140 -7.24910205 -0.73987732
v 0.03666020 -7.26684229 -0.73987732
v 0.03684685 -7.28484131 -0.73987732
v -0.72848553 -7.93181201 -0.73987732
v 1.40462219 -7.83468750 -0.73987732
v 2.86132153 -7.89458545 -0.73987732
v 1.42262109 -7.83450098 -0.73987732
v 2.15410059 -7.20188184 -0.73987732
v 2.13610181 -7.20206836 -0.73987732
v -0.73555750 -7.24984863 -0.73987732
v 2.83058643 -4.93074463 -0.73987732
v 2.13062402 -4.93800342 -0.73987732
v 2.12992139 -6.60610059 -0.73987732
v 1.43658496 -7.25232471 -0.73987732
v 1.43677161 -7.27032373 -0.73987732
v 1.41755042 -7.34552734 -0.73987732
v 1.39955151 -7.34571387 -0.73987732
v 1.64205737 -6.04312939 -0.73947729
v 1.64205737 -6.04312939 -0.73887732
v 2.14203052 -6.03794434 -0.73947729
v 2.14203052 -6.03794434 -0.73787732
v 1.64205737 -6.04312939 -0.73787732
v 1.64776062 -6.59309961 -0.73887732
v 1.64776062 -6.59309961 -0.73787732
v 2.14773364 -6.58791504 -0.73787732
v 2.14773364 -6.58791504 -0.25787732
v 0.04784666 -6.60969092 -0.25787732
v 0.64781439 -6.60346924 -0.73947729
v 0.04784666 -6.60969092 -0.73987732
v 0.64781439 -6.60346924 -0.73987732
v 0.03736311 -5.59874512 -0.73987732
v 0.63070477 -4.95355762 -0.73987732
v -1.39855969 -5.61363574 -0.73987732
v -2.02744885 -5.53115283 -0.73987732
v -2.02726221 -5.54915186 -0.73987732
v -3.13309302 -4.99258838 -0.73987732
v -2.32743286 -5.53426367 -0.73987732
v -2.32724609 -5.55226270 -0.73987732
v -2.32154297 -6.10223291 -0.73987732
v -2.02155908 -6.09912207 -0.73987732
v -3.10857959 -7.35646143 -0.73987732
v -2.41564771 -6.67123926 -0.73987732
v -2.32135620 -6.12023193 -0.73987732
v -3.05858228 -7.35594287 -0.73987732
v -2.40946753 -7.26720703 -0.73987732
v -3.05339746 -7.85591602 -0.73987732
v -1.90242236 -7.94398584 -0.73987732
v -3.10235791 -7.95642920 -0.73987732
v -3.10339478 -7.85643457 -0.73987732
v -1.90949426 -7.26202246 -0.73987732
v -2.02137231 -6.11712109 -0.73987732
v -1.38770288 -6.66057959 -0.73987732
v 0.63070477 -4.95355762 -0.73947729
v 1.13067786 -4.94837305 -0.73947729
v 2.83058643 -4.93074463 -0.25787732
v 1.13067786 -4.94837305 -0.73887732
v -3.13309302 -4.99258838 -0.25787732
v 1.41755042 -7.34552734 -0.75787732
v 1.42262109 -7.83450098 -0.75787732
v 1.39955151 -7.34571387 -0.75787732
v 1.40462219 -7.83468750 -0.75787732
v 1.43658496 -7.25232471 -0.25787732
v 0.03666020 -7.26684229 -0.25787732
v 0.03684685 -7.28484131 -0.25787732
v 1.43677161 -7.27032373 -0.25787732
v 0.03736311 -5.59874512 -0.25787732
v -1.39855969 -5.61363574 -0.25787732
v -1.38770288 -6.66057959 -0.25787732
v -2.41564771 -6.67123926 -0.25787732
v -2.40946753 -7.26720703 -0.25787732
v -1.90949426 -7.26202246 -0.25787732
v -1.90242236 -7.94398584 -0.25787732
v -3.10235791 -7.95642920 -0.25787732
v -3.10339478 -7.85643457 -0.25787732
v -3.05339746 -7.85591602 -0.25787732
v -3.05858228 -7.35594287 -0.25787732
v -3.10857959 -7.35646143 -0.25787732
v 2.86132153 -7.89458545 -0.25787732
v -0.72848553 -7.93181201 -0.25787732
v -0.73555750 -7.24984863 -0.25787732
v -0.66356140 -7.24910205 -0.25787732
v -0.67315320 -6.32415186 -0.25787732
v -0.69115210 -6.32433838 -0.25787732
v 2.15410059 -7.20188184 -0.25787732
v 2.13610181 -7.20206836 -0.25787732
v 2.12992139 -6.60610059 -0.25787732
v 0.03003410 -6.62787646 -0.25787732
v 0.01955055 -5.61693066 -0.25787732
v -1.38037415 -5.63144824 -0.25787732
v -1.31352649 -7.25584229 -0.25787732
v -0.75374323 -7.23203613 -0.25787732
v -0.68174695 -7.23128955 -0.25787732
v -3.15127856 -4.97477637 -0.75787732
v -3.12017017 -7.97461475 -0.75787732
v -3.15127856 -4.97477637 -0.25787732
v -3.12017017 -7.97461475 -0.25787732
v 2.84839868 -4.91255908 -0.75787732
v 2.84839868 -4.91255908 -0.25787732
v 2.87950708 -7.91239795 -0.75787732
v 2.87950708 -7.91239795 -0.25787732
v -0.97999146 -4.97026074 -0.68987732
v -1.38718689 -4.97448340 -0.73987732
v -0.97336536 -5.60922656 -0.68987732
v -1.38056079 -5.61344922 -0.73987732
v -0.97999146 -4.97026074 -0.70987732
v -0.97336536 -5.60922656 -0.70987732
v -0.39445758 -4.96418896 -0.70987732
v -0.38783148 -5.60315430 -0.70987732
v -0.39445758 -4.96418896 -0.68987732
v -0.38783148 -5.60315430 -0.68987732
v 0.01273786 -4.95996631 -0.73987732
v 0.01936396 -5.59893164 -0.73987732
v 1.07938684 -7.25602881 -0.68987732
v 1.48658228 -7.25180615 -0.73987732
v 1.07276074 -6.61706348 -0.68987732
v 1.47995618 -6.61284082 -0.73987732
v 1.07938684 -7.25602881 -0.70987732
v 1.07276074 -6.61706348 -0.70987732
v 0.49385300 -7.26210107 -0.70987732
v 0.48722690 -6.62313525 -0.70987732
v 0.49385300 -7.26210107 -0.68987732
v 0.48722690 -6.62313525 -0.68987732
v 0.08665757 -7.26632373 -0.73987732
v 0.08003147 -6.62735791 -0.73987732
f 1 2 3
f 3 2 4
f 3 4 5
f 5 4 6
f 5 6 7
f 7 6 8
f 7 8 9
f 9 8 10
f 9 10 11
f 11 10 12
f 11 12 13
f 13 12 14
f 13 14 15
f 15 14 16
f 15 16 17
f 17 16 18
f 17 18 19
f 19 18 20
f 19 20 21
f 21 20 22
f 21 22 23
f 23 22 24
f 23 24 25
f 25 24 26
f 25 26 27
f 27 26 28
f 27 28 29
f 29 28 30
f 29 30 31
f 31 30 32
f 31 32 33
f 33 32 34
f 33 34 35
f 35 34 36
f 35 36 37
f 37 36 38
f 37 38 39
f 39 38 40
f 39 40 41
f 41 40 42
f 41 42 43
f 43 42 44
f 43 44 45
f 45 44 46
f 45 46 47
f 47 46 1
f 47 1 3
f 3 5 47
f 47 5 45
f 45 5 7
f 45 7 43
f 43 7 9
f 43 9 41
f 41 9 11
f 41 11 39
f 39 11 13
f 39 13 37
f 37 13 35
f 35 13 33
f 33 13 31
f 31 13 29
f 29 13 27
f 27 13 25
f 25 13 23
f 23 13 21
f 21 13 19
f 19 13 17
f 17 13 15
f 2 26 4
f 4 26 24
f 4 24 6
f 6 24 22
f 6 22 8
f 8 22 20
f 8 20 10
f 10 20 18
f 10 18 12
f 12 18 16
f 12 16 14
f 48 49 50
f 50 49 51
f 50 51 52
f 52 51 53
f 52 53 54
f 54 53 55
f 54 55 56
f 56 55 57
f 56 57 58
f 58 57 59
f 58 59 60
f 60 59 61
f 60 61 62
f 62 61 63
f 62 63 64
f 64 63 65
f 64 65 66
f 66 65 67
f 66 67 68
f 68 67 69
f 68 69 70
f 70 69 71
f 70 71 72
f 72 71 73
f 72 73 74
f 74 73 75
f 74 75 76
f 76 75 77
f 76 77 78
f 78 77 79
f 78 79 80
f 80 79 81
f 80 81 82
f 82 81 83
f 82 83 84
f 84 83 85
f 84 85 86
f 86 85 87
f 86 87 88
f 88 87 89
f 88 89 90
f 90 89 91
f 90 91 92
f 92 91 93
f 92 93 94
f 94 93 48
f 94 48 50
f 50 52 94
f 94 52 92
f 92 52 54
f 92 54 90
f 90 54 56
f 90 56 88
f 88 56 58
f 88 58 86
f 86 58 60
f 86 60 84
f 84 60 82
f 82 60 80
f 80 60 78
f 78 60 76
f 76 60 74
f 74 60 72
f 72 60 70
f 70 60 68
f 68 60 66
f 66 60 64
f 64 60 62
f 49 73 51
f 51 73 71
f 51 71 53
f 53 71 69
f 53 69 55
f 55 69 67
f 55 67 57
f 57 67 65
f 57 65 59
f 59 65 63
f 59 63 61
f 95 96 97
f 97 96 98
f 99 100 98
f 98 100 97
f 2 1 73
f 73 1 75
f 75 1 46
f 75 46 77
f 77 46 44
f 77 44 79
f 79 44 97
f 79 97 81
f 81 97 83
f 83 97 85
f 85 97 87
f 87 97 100
f 87 100 89
f 89 100 91
f 91 100 101
f 91 101 93
f 93 101 48
f 48 101 49
f 44 42 97
f 97 42 40
f 97 40 102
f 102 40 38
f 102 38 36
f 36 34 102
f 102 34 32
f 102 32 103
f 103 32 30
f 103 30 28
f 28 26 103
f 102 95 97
f 99 98 104
f 104 98 105
f 105 98 106
f 106 98 96
f 95 102 96
f 96 102 106
f 105 106 103
f 103 106 102
f 105 73 104
f 104 73 49
f 104 49 101
f 103 26 105
f 105 26 2
f 105 2 73
f 99 104 100
f 100 104 101
f 107 108 109
f 109 108 110
f 111 107 112
f 112 107 109
f 113 111 114
f 114 111 112
f 115 113 116
f 116 113 114
f 117 115 118
f 118 115 116
f 119 117 120
f 120 117 118
f 121 119 122
f 122 119 120
f 123 121 124
f 124 121 122
f 125 126 127
f 127 126 128
f 127 128 129
f 129 128 130
f 129 130 131
f 131 130 132
f 131 132 133
f 133 132 134
f 133 134 135
f 135 134 136
f 135 136 137
f 137 136 138
f 137 138 139
f 139 138 140
f 139 140 141
f 141 140 142
f 141 142 143
f 143 142 144
f 143 144 145
f 145 144 146
f 145 146 147
f 147 146 148
f 147 148 149
f 149 148 150
f 149 150 151
f 151 150 152
f 151 152 153
f 153 152 154
f 153 154 155
f 155 154 156
f 155 156 157
f 157 156 158
f 157 158 159
f 159 158 160
f 159 160 161
f 161 160 162
f 161 162 163
f 163 162 164
f 163 164 165
f 165 164 166
f 165 166 167
f 167 166 168
f 167 168 169
f 169 168 170
f 169 170 171
f 171 170 172
f 171 172 173
f 173 172 174
f 173 174 175
f 175 174 176
f 175 176 177
f 177 176 178
f 177 178 179
f 179 178 180
f 179 180 181
f 181 180 182
f 181 182 183
f 183 182 184
f 183 184 185
f 185 184 186
f 185 186 187
f 187 186 188
f 187 188 189
f 189 188 190
f 189 190 124
f 124 190 123
f 191 126 192
f 192 126 125
f 193 191 194
f 194 191 192
f 108 193 110
f 110 193 194
f 194 192 110
f 110 192 109
f 109 192 122
f 109 122 116
f 116 122 120
f 116 120 118
f 122 192 124
f 124 192 125
f 124 125 189
f 189 125 187
f 187 125 185
f 185 125 183
f 183 125 181
f 181 125 179
f 179 125 177
f 177 125 175
f 175 125 173
f 173 125 171
f 171 125 169
f 169 125 167
f 167 125 165
f 165 125 163
f 163 125 161
f 161 125 159
f 159 125 157
f 157 125 155
f 155 125 153
f 153 125 151
f 151 125 127
f 151 127 149
f 149 127 129
f 149 129 147
f 147 129 131
f 147 131 145
f 145 131 133
f 145 133 143
f 143 133 135
f 143 135 141
f 141 135 137
f 141 137 139
f 114 112 116
f 116 112 109
f 108 107 193
f 193 107 191
f 191 107 115
f 191 115 121
f 121 115 117
f 121 117 119
f 111 113 107
f 107 113 115
f 191 121 126
f 126 121 123
f 126 123 128
f 128 123 130
f 130 123 132
f 132 123 134
f 134 123 136
f 136 123 138
f 138 123 140
f 140 123 142
f 142 123 144
f 144 123 146
f 146 123 148
f 148 123 150
f 150 123 152
f 152 123 154
f 154 123 156
f 156 123 158
f 158 123 160
f 160 123 162
f 162 123 164
f 164 123 166
f 166 123 190
f 166 190 168
f 168 190 188
f 168 188 170
f 170 188 186
f 170 186 172
f 172 186 184
f 172 184 174
f 174 184 182
f 174 182 176
f 176 182 180
f 176 180 178
f 195 196 197
f 197 196 198
f 197 198 199
f 199 198 200
f 199 200 201
f 201 200 202
f 201 202 203
f 203 202 204
f 203 204 205
f 205 204 206
f 205 206 207
f 207 206 208
f 207 208 209
f 209 208 210
f 209 210 211
f 211 210 212
f 211 212 213
f 213 212 214
f 213 214 215
f 215 214 216
f 215 216 217
f 217 216 218
f 217 218 219
f 219 218 220
f 219 220 221
f 221 220 222
f 221 222 223
f 223 222 224
f 223 224 225
f 225 224 226
f 225 226 227
f 227 226 228
f 227 228 229
f 229 228 230
f 229 230 231
f 231 230 232
f 231 232 233
f 233 232 234
f 233 234 235
f 235 234 236
f 235 236 237
f 237 236 238
f 237 238 239
f 239 238 240
f 239 240 241
f 241 240 242
f 241 242 243
f 243 242 244
f 243 244 245
f 245 244 246
f 245 246 247
f 247 246 248
f 247 248 249
f 249 248 250
f 249 250 251
f 251 250 252
f 251 252 253
f 253 252 254
f 253 254 255
f 255 254 256
f 255 256 257
f 257 256 258
f 257 258 259
f 259 258 260
f 259 260 261
f 261 260 262
f 261 262 263
f 263 262 264
f 263 264 265
f 265 264 266
f 265 266 267
f 267 266 268
f 267 268 269
f 269 268 270
f 269 270 271
f 271 270 272
f 271 272 273
f 273 272 274
f 273 274 275
f 275 274 276
f 275 276 277
f 277 276 278
f 277 278 279
f 279 278 280
f 279 280 281
f 281 280 282
f 281 282 283
f 283 282 284
f 283 284 285
f 285 284 286
f 285 286 287
f 287 286 288
f 287 288 195
f 195 288 196
f 289 290 291
f 291 290 292
f 291 292 293
f 293 292 294
f 293 294 295
f 295 294 296
f 295 296 297
f 297 296 298
f 297 298 299
f 299 298 300
f 299 300 301
f 301 300 302
f 301 302 303
f 303 302 304
f 303 304 305
f 305 304 306
f 305 306 307
f 307 306 308
f 307 308 309
f 309 308 310
f 309 310 311
f 311 310 312
f 311 312 313
f 313 312 314
f 313 314 315
f 315 314 316
f 315 316 317
f 317 316 318
f 317 318 319
f 319 318 320
f 319 320 321
f 321 320 322
f 321 322 323
f 323 322 324
f 323 324 325
f 325 324 326
f 325 326 327
f 327 326 328
f 327 328 329
f 329 328 330
f 329 330 331
f 331 330 332
f 331 332 333
f 333 332 334
f 333 334 335
f 335 334 336
f 335 336 337
f 337 336 338
f 337 338 339
f 339 338 340
f 339 340 341
f 341 340 342
f 341 342 343
f 343 342 344
f 343 344 345
f 345 344 346
f 345 346 347
f 347 346 348
f 347 348 349
f 349 348 350
f 349 350 351
f 351 350 352
f 351 352 353
f 353 352 354
f 353 354 355
f 355 354 356
f 355 356 357
f 357 356 358
f 357 358 359
f 359 358 360
f 359 360 361
f 361 360 362
f 361 362 363
f 363 362 364
f 363 364 365
f 365 364 366
f 365 366 367
f 367 366 368
f 367 368 369
f 369 368 370
f 369 370 371
f 371 370 372
f 371 372 373
f 373 372 374
f 373 374 375
f 375 374 376
f 375 376 377
f 377 376 378
f 377 378 379
f 379 378 380
f 379 380 381
f 381 380 382
f 381 382 383
f 383 382 384
f 383 384 289
f 289 384 290
f 294 292 198
f 198 292 290
f 198 290 200
f 200 290 384
f 200 384 202
f 202 384 382
f 202 382 204
f 204 382 380
f 204 380 206
f 206 380 378
f 206 378 208
f 208 378 376
f 208 376 210
f 210 376 374
f 210 374 212
f 212 374 372
f 212 372 214
f 214 372 370
f 214 370 216
f 216 370 368
f 216 368 218
f 218 368 366
f 218 366 220
f 220 366 364
f 220 364 222
f 222 364 362
f 222 362 224
f 224 362 360
f 224 360 226
f 226 360 358
f 226 358 228
f 228 358 356
f 228 356 230
f 230 356 354
f 230 354 232
f 232 354 352
f 232 352 234
f 234 352 350
f 234 350 236
f 236 350 348
f 236 348 238
f 238 348 346
f 238 346 240
f 240 346 344
f 240 344 242
f 242 344 342
f 242 342 244
f 244 342 340
f 244 340 246
f 246 340 338
f 246 338 248
f 248 338 336
f 248 336 250
f 250 336 334
f 250 334 252
f 252 334 332
f 252 332 254
f 254 332 330
f 254 330 256
f 256 330 328
f 256 328 258
f 258 328 326
f 258 326 260
f 260 326 324
f 260 324 262
f 262 324 322
f 262 322 264
f 264 322 320
f 264 320 266
f 266 320 318
f 266 318 268
f 268 318 316
f 268 316 270
f 270 316 314
f 270 314 272
f 272 314 312
f 272 312 274
f 274 312 310
f 274 310 276
f 276 310 308
f 276 308 278
f 278 308 306
f 278 306 280
f 280 306 304
f 280 304 282
f 282 304 302
f 282 302 284
f 284 302 300
f 284 300 286
f 286 300 298
f 286 298 288
f 288 298 296
f 288 296 196
f 196 296 294
f 196 294 198
f 289 291 197
f 197 291 293
f 197 293 195
f 195 293 295
f 195 295 287
f 287 295 297
f 287 297 285
f 285 297 299
f 285 299 283
f 283 299 301
f 283 301 281
f 281 301 303
f 281 303 279
f 279 303 305
f 279 305 277
f 277 305 307
f 277 307 275
f 275 307 309
f 275 309 273
f 273 309 311
f 273 311 271
f 271 311 313
f 271 313 269
f 269 313 315
f 269 315 267
f 267 315 317
f 267 317 265
f 265 317 319
f 265 319 263
f 263 319 321
f 263 321 261
f 261 321 323
f 261 323 259
f 259 323 325
f 259 325 257
f 257 325 327
f 257 327 255
f 255 327 329
f 255 329 253
f 253 329 331
f 253 331 251
f 251 331 333
f 251 333 249
f 249 333 335
f 249 335 247
f 247 335 337
f 247 337 245
f 245 337 339
f 245 339 243
f 243 339 341
f 243 341 241
f 241 341 343
f 241 343 239
f 239 343 345
f 239 345 237
f 237 345 347
f 237 347 235
f 235 347 349
f 235 349 233
f 233 349 351
f 233 351 231
f 231 351 353
f 231 353 229
f 229 353 355
f 229 355 227
f 227 355 357
f 227 357 225
f 225 357 359
f 225 359 223
f 223 359 361
f 223 361 221
f 221 361 363
f 221 363 219
f 219 363 365
f 219 365 217
f 217 365 367
f 217 367 215
f 215 367 369
f 215 369 213
f 213 369 371
f 213 371 211
f 211 371 373
f 211 373 209
f 209 373 375
f 209 375 207
f 207 375 377
f 207 377 205
f 205 377 379
f 205 379 203
f 203 379 381
f 203 381 201
f 201 381 383
f 201 383 199
f 199 383 289
f 199 289 197
f 385 386 387
f 387 386 388
f 387 388 389
f 389 388 390
f 389 390 391
f 391 390 392
f 391 392 393
f 393 392 394
f 393 394 395
f 395 394 396
f 395 396 397
f 397 396 398
f 397 398 399
f 399 398 400
f 399 400 401
f 401 400 402
f 401 402 403
f 403 402 404
f 403 404 405
f 405 404 406
f 405 406 407
f 407 406 408
f 407 408 409
f 409 408 410
f 409 410 411
f 411 410 412
f 411 412 413
f 413 412 414
f 413 414 415
f 415 414 416
f 415 416 417
f 417 416 418
f 417 418 419
f 419 418 420
f 419 420 421
f 421 420 422
f 421 422 423
f 423 422 424
f 423 424 425
f 425 424 426
f 425 426 427
f 427 426 428
f 427 428 429
f 429 428 430
f 429 430 431
f 431 430 432
f 431 432 433
f 433 432 434
f 433 434 435
f 435 434 436
f 435 436 437
f 437 436 438
f 437 438 439
f 439 438 440
f 439 440 441
f 441 440 442
f 441 442 443
f 443 442 444
f 443 444 445
f 445 444 446
f 445 446 447
f 447 446 448
f 447 448 449
f 449 448 450
f 449 450 451
f 451 450 452
f 451 452 453
f 453 452 454
f 453 454 455
f 455 454 456
f 455 456 457
f 457 456 458
f 457 458 459
f 459 458 460
f 459 460 461
f 461 460 462
f 461 462 463
f 463 462 464
f 463 464 465
f 465 464 466
f 465 466 467
f 467 466 468
f 467 468 469
f 469 468 470
f 469 470 471
f 471 470 472
f 471 472 473
f 473 472 474
f 473 474 475
f 475 474 476
f 475 476 477
f 477 476 478
f 477 478 385
f 385 478 386
f 479 480 481
f 481 480 482
f 481 482 483
f 483 482 484
f 483 484 485
f 485 484 486
f 485 486 487
f 487 486 488
f 487 488 489
f 489 488 490
f 489 490 491
f 491 490 492
f 491 492 493
f 493 492 494
f 493 494 495
f 495 494 496
f 495 496 497
f 497 496 498
f 497 498 499
f 499 498 500
f 499 500 501
f 501 500 502
f 501 502 503
f 503 502 504
f 503 504 505
f 505 504 506
f 505 506 507
f 507 506 508
f 507 508 509
f 509 508 510
f 509 510 511
f 511 510 512
f 511 512 513
f 513 512 514
f 513 514 515
f 515 514 516
f 515 516 517
f 517 516 518
f 517 518 519
f 519 518 520
f 519 520 521
f 521 520 522
f 521 522 523
f 523 522 524
f 523 524 525
f 525 524 526
f 525 526 527
f 527 526 528
f 527 528 529
f 529 528 530
f 529 530 531
f 531 530 532
f 531 532 533
f 533 532 534
f 533 534 535
f 535 534 536
f 535 536 537
f 537 536 538
f 537 538 539
f 539 538 540
f 539 540 541
f 541 540 542
f 541 542 543
f 543 542 544
f 543 544 545
f 545 544 546
f 545 546 547
f 547 546 548
f 547 548 549
f 549 548 550
f 549 550 551
f 551 550 552
f 551 552 553
f 553 552 554
f 553 554 555
f 555 554 556
f 555 556 557
f 557 556 558
f 557 558 559
f 559 558 560
f 559 560 561
f 561 560 562
f 561 562 563
f 563 562 564
f 563 564 565
f 565 564 566
f 565 566 567
f 567 566 568
f 567 568 569
f 569 568 570
f 569 570 571
f 571 570 572
f 571 572 573
f 573 572 574
f 573 574 479
f 479 574 480
f 484 482 388
f 388 482 480
f 388 480 390
f 390 480 574
f 390 574 392
f 392 574 572
f 392 572 394
f 394 572 570
f 394 570 396
f 396 570 568
f 396 568 398
f 398 568 566
f 398 566 400
f 400 566 564
f 400 564 402
f 402 564 562
f 402 562 404
f 404 562 560
f 404 560 406
f 406 560 558
f 406 558 408
f 408 558 556
f 408 556 410
f 410 556 554
f 410 554 412
f 412 554 552
f 412 552 414
f 414 552 550
f 414 550 416
f 416 550 548
f 416 548 418
f 418 548 546
f 418 546 420
f 420 546 544
f 420 544 422
f 422 544 542
f 422 542 424
f 424 542 540
f 424 540 426
f 426 540 538
f 426 538 428
f 428 538 536
f 428 536 430
f 430 536 534
f 430 534 432
f 432 534 532
f 432 532 434
f 434 532 530
f 434 530 436
f 436 530 528
f 436 528 438
f 438 528 526
f 438 526 440
f 440 526 524
f 440 524 442
f 442 524 522
f 442 522 444
f 444 522 520
f 444 520 446
f 446 520 518
f 446 518 448
f 448 518 516
f 448 516 450
f 450 516 514
f 450 514 452
f 452 514 512
f 452 512 454
f 454 512 510
f 454 510 456
f 456 510 508
f 456 508 458
f 458 508 506
f 458 506 460
f 460 506 504
f 460 504 462
f 462 504 502
f 462 502 464
f 464 502 500
f 464 500 466
f 466 500 498
f 466 498 468
f 468 498 496
f 468 496 470
f 470 496 494
f 470 494 472
f 472 494 492
f 472 492 474
f 474 492 490
f 474 490 476
f 476 490 488
f 476 488 478
f 478 488 486
f 478 486 386
f 386 486 484
f 386 484 388
f 479 481 387
f 387 481 483
f 387 483 385
f 385 483 485
f 385 485 477
f 477 485 487
f 477 487 475
f 475 487 489
f 475 489 473
f 473 489 491
f 473 491 471
f 471 491 493
f 471 493 469
f 469 493 495
f 469 495 467
f 467 495 497
f 467 497 465
f 465 497 499
f 465 499 463
f 463 499 501
f 463 501 461
f 461 501 503
f 461 503 459
f 459 503 505
f 459 505 457
f 457 505 507
f 457 507 455
f 455 507 509
f 455 509 453
f 453 509 511
f 453 511 451
f 451 511 513
f 451 513 449
f 449 513 515
f 449 515 447
f 447 515 517
f 447 517 445
f 445 517 519
f 445 519 443
f 443 519 521
f 443 521 441
f 441 521 523
f 441 523 439
f 439 523 525
f 439 525 437
f 437 525 527
f 437 527 435
f 435 527 529
f 435 529 433
f 433 529 531
f 433 531 431
f 431 531 533
f 431 533 429
f 429 533 535
f 429 535 427
f 427 535 537
f 427 537 425
f 425 537 539
f 425 539 423
f 423 539 541
f 423 541 421
f 421 541 543
f 421 543 419
f 419 543 545
f 419 545 417
f 417 545 547
f 417 547 415
f 415 547 549
f 415 549 413
f 413 549 551
f 413 551 411
f 411 551 553
f 411 553 409
f 409 553 555
f 409 555 407
f 407 555 557
f 407 557 405
f 405 557 559
f 405 559 403
f 403 559 561
f 403 561 401
f 401 561 563
f 401 563 399
f 399 563 565
f 399 565 397
f 397 565 567
f 397 567 395
f 395 567 569
f 395 569 393
f 393 569 571
f 393 571 391
f 391 571 573
f 391 573 389
f 389 573 479
f 389 479 387
f 575 576 577
f 577 576 578
f 577 578 579
f 579 578 580
f 579 580 581
f 581 580 582
f 581 582 583
f 583 582 584
f 583 584 585
f 585 584 586
f 585 586 587
f 587 586 588
f 587 588 589
f 589 588 590
f 589 590 591
f 591 590 592
f 591 592 593
f 593 592 594
f 593 594 595
f 595 594 596
f 595 596 597
f 597 596 598
f 597 598 599
f 599 598 600
f 599 600 601
f 601 600 602
f 601 602 603
f 603 602 604
f 603 604 605
f 605 604 606
f 605 606 607
f 607 606 608
f 607 608 609
f 609 608 610
f 609 610 611
f 611 610 612
f 611 612 613
f 613 612 614
f 613 614 615
f 615 614 616
f 615 616 617
f 617 616 618
f 617 618 619
f 619 618 620
f 619 620 621
f 621 620 622
f 621 622 623
f 623 622 624
f 623 624 625
f 625 624 626
f 625 626 627
f 627 626 628
f 627 628 629
f 629 628 630
f 629 630 631
f 631 630 632
f 631 632 633
f 633 632 634
f 633 634 635
f 635 634 636
f 635 636 637
f 637 636 638
f 637 638 639
f 639 638 640
f 639 640 641
f 641 640 642
f 641 642 643
f 643 642 644
f 643 644 645
f 645 644 646
f 645 646 647
f 647 646 648
f 647 648 649
f 649 648 650
f 649 650 651
f 651 650 652
f 651 652 653
f 653 652 654
f 653 654 655
f 655 654 656
f 655 656 657
f 657 656 658
f 657 658 659
f 659 658 660
f 659 660 661
f 661 660 662
f 661 662 663
f 663 662 664
f 663 664 665
f 665 664 666
f 665 666 667
f 667 666 668
f 667 668 575
f 575 668 576
f 669 670 671
f 671 670 672
f 671 672 673
f 673 672 674
f 673 674 675
f 675 674 676
f 675 676 677
f 677 676 678
f 677 678 679
f 679 678 680
f 679 680 681
f 681 680 682
f 681 682 683
f 683 682 684
f 683 684 685
f 685 684 686
f 685 686 687
f 687 686 688
f 687 688 689
f 689 688 690
f 689 690 691
f 691 690 692
f 691 692 693
f 693 692 694
f 693 694 695
f 695 694 696
f 695 696 697
f 697 696 698
f 697 698 699
f 699 698 700
f 699 700 701
f 701 700 702
f 701 702 703
f 703 702 704
f 703 704 705
f 705 704 706
f 705 706 707
f 707 706 708
f 707 708 709
f 709 708 710
f 709 710 711
f 711 710 712
f 711 712 713
f 713 712 714
f 713 714 715
f 715 714 716
f 715 716 717
f 717 716 718
f 717 718 719
f 719 718 720
f 719 720 721
f 721 720 722
f 721 722 723
f 723 722 724
f 723 724 725
f 725 724 726
f 725 726 727
f 727 726 728
f 727 728 729
f 729 728 730
f 729 730 731
f 731 730 732
f 731 732 733
f 733 732 734
f 733 734 735
f 735 734 736
f 735 736 737
f 737 736 738
f 737 738 739
f 739 738 740
f 739 740 741
f 741 740 742
f 741 742 743
f 743 742 744
f 743 744 745
f 745 744 746
f 745 746 747
f 747 746 748
f 747 748 749
f 749 748 750
f 749 750 751
f 751 750 752
f 751 752 753
f 753 752 754
f 753 754 755
f 755 754 756
f 755 756 757
f 757 756 758
f 757 758 759
f 759 758 760
f 759 760 761
f 761 760 762
f 761 762 763
f 763 762 764
f 763 764 669
f 669 764 670
f 674 672 578
f 578 672 670
f 578 670 580
f 580 670 764
f 580 764 582
f 582 764 762
f 582 762 584
f 584 762 760
f 584 760 586
f 586 760 758
f 586 758 588
f 588 758 756
f 588 756 590
f 590 756 754
f 590 754 592
f 592 754 752
f 592 752 594
f 594 752 750
f 594 750 596
f 596 750 748
f 596 748 598
f 598 748 746
f 598 746 600
f 600 746 744
f 600 744 602
f 602 744 742
f 602 742 604
f 604 742 740
f 604 740 606
f 606 740 738
f 606 738 608
f 608 738 736
f 608 736 610
f 610 736 734
f 610 734 612
f 612 734 732
f 612 732 614
f 614 732 730
f 614 730 616
f 616 730 728
f 616 728 618
f 618 728 726
f 618 726 620
f 620 726 724
f 620 724 622
f 622 724 722
f 622 722 624
f 624 722 720
f 624 720 626
f 626 720 718
f 626 718 628
f 628 718 716
f 628 716 630
f 630 716 714
f 630 714 632
f 632 714 712
f 632 712 634
f 634 712 710
f 634 710 636
f 636 710 708
f 636 708 638
f 638 708 706
f 638 706 640
f 640 706 704
f 640 704 642
f 642 704 702
f 642 702 644
f 644 702 700
f 644 700 646
f 646 700 698
f 646 698 648
f 648 698 696
f 648 696 650
f 650 696 694
f 650 694 652
f 652 694 692
f 652 692 654
f 654 692 690
f 654 690 656
f 656 690 688
f 656 688 658
f 658 688 686
f 658 686 660
f 660 686 684
f 660 684 662
f 662 684 682
f 662 682 664
f 664 682 680
f 664 680 666
f 666 680 678
f 666 678 668
f 668 678 676
f 668 676 576
f 576 676 674
f 576 674 578
f 669 671 577
f 577 671 673
f 577 673 575
f 575 673 675
f 575 675 667
f 667 675 677
f 667 677 665
f 665 677 679
f 665 679 663
f 663 679 681
f 663 681 661
f 661 681 683
f 661 683 659
f 659 683 685
f 659 685 657
f 657 685 687
f 657 687 655
f 655 687 689
f 655 689 653
f 653 689 691
f 653 691 651
f 651 691 693
f 651 693 649
f 649 693 695
f 649 695 647
f 647 695 697
f 647 697 645
f 645 697 699
f 645 699 643
f 643 699 701
f 643 701 641
f 641 701 703
f 641 703 639
f 639 703 705
f 639 705 637
f 637 705 707
f 637 707 635
f 635 707 709
f 635 709 633
f 633 709 711
f 633 711 631
f 631 711 713
f 631 713 629
f 629 713 715
f 629 715 627
f 627 715 717
f 627 717 625
f 625 717 719
f 625 719 623
f 623 719 721
f 623 721 621
f 621 721 723
f 621 723 619
f 619 723 725
f 619 725 617
f 617 725 727
f 617 727 615
f 615 727 729
f 615 729 613
f 613 729 731
f 613 731 611
f 611 731 733
f 611 733 609
f 609 733 735
f 609 735 607
f 607 735 737
f 607 737 605
f 605 737 739
f 605 739 603
f 603 739 741
f 603 741 601
f 601 741 743
f 601 743 599
f 599 743 745
f 599 745 597
f 597 745 747
f 597 747 595
f 595 747 749
f 595 749 593
f 593 749 751
f 593 751 591
f 591 751 753
f 591 753 589
f 589 753 755
f 589 755 587
f 587 755 757
f 587 757 585
f 585 757 759
f 585 759 583
f 583 759 761
f 583 761 581
f 581 761 763
f 581 763 579
f 579 763 669
f 579 669 577
f 765 766 767
f 767 766 768
f 766 765 769
f 769 765 770
f 771 772 773
f 773 772 774
f 771 773 775
f 775 773 776
f 774 772 777
f 777 772 778
f 778 772 779
f 779 772 780
f 780 772 781
f 780 782 779
f 779 782 783
f 782 784 783
f 783 784 785
f 786 779 787
f 787 779 785
f 785 779 783
f 779 786 778
f 778 786 788
f 786 787 788
f 788 787 789
f 787 785 789
f 789 785 790
f 790 785 791
f 791 785 784
f 792 793 794
f 794 793 795
f 794 795 796
f 796 795 797
f 796 797 798
f 798 797 792
f 798 792 799
f 799 792 794
f 800 801 802
f 802 801 803
f 802 803 804
f 804 803 805
f 804 805 806
f 806 805 800
f 806 800 807
f 807 800 802
f 808 809 810
f 810 809 811
f 810 811 812
f 812 811 813
f 812 813 814
f 814 813 808
f 808 813 815
f 808 815 809
f 796 798 816
f 816 798 817
f 794 796 818
f 818 796 816
f 799 794 819
f 819 794 818
f 798 799 817
f 817 799 819
f 807 802 820
f 820 802 821
f 806 807 822
f 822 807 820
f 804 806 823
f 823 806 822
f 802 804 821
f 821 804 823
f 815 813 824
f 824 813 825
f 809 815 826
f 826 815 824
f 811 809 827
f 827 809 826
f 813 811 825
f 825 811 827
f 800 805 828
f 828 805 829
f 792 797 830
f 830 797 831
f 831 819 830
f 830 819 818
f 830 818 827
f 827 818 816
f 827 816 825
f 825 816 831
f 825 831 824
f 824 831 828
f 824 828 821
f 821 828 820
f 820 828 829
f 820 829 822
f 822 829 823
f 823 829 826
f 823 826 824
f 829 830 826
f 826 830 827
f 821 823 824
f 816 817 831
f 831 817 819
f 832 833 834
f 834 833 835
f 835 833 836
f 837 838 839
f 839 838 840
f 839 840 841
f 833 839 836
f 836 839 841
f 835 836 840
f 840 836 841
f 832 842 833
f 833 842 843
f 844 845 846
f 846 845 847
f 848 849 845
f 845 849 850
f 845 850 847
f 851 846 850
f 850 846 847
f 780 781 782
f 782 781 852
f 782 852 853
f 782 853 791
f 791 853 854
f 791 854 855
f 791 855 856
f 856 855 857
f 856 857 858
f 858 857 859
f 859 857 860
f 859 860 861
f 861 860 862
f 862 860 863
f 862 863 864
f 864 863 865
f 864 865 866
f 866 865 867
f 866 867 868
f 860 869 863
f 865 870 867
f 867 870 871
f 872 873 868
f 868 873 874
f 868 874 875
f 875 874 876
f 876 874 862
f 876 862 864
f 872 859 873
f 873 859 861
f 791 784 782
f 875 866 868
f 877 878 879
f 879 878 880
f 880 878 881
f 878 882 881
f 881 882 883
f 880 881 884
f 884 881 883
f 884 883 885
f 885 883 843
f 885 843 886
f 886 843 887
f 886 887 888
f 888 887 889
f 883 882 843
f 843 842 887
f 845 878 848
f 848 878 877
f 877 879 848
f 848 879 849
f 832 834 842
f 842 834 887
f 888 889 890
f 890 889 891
f 890 891 892
f 892 891 893
f 892 893 894
f 891 895 893
f 893 895 896
f 896 895 897
f 897 895 898
f 897 898 899
f 900 901 895
f 895 901 902
f 895 902 898
f 900 903 901
f 901 903 904
f 904 903 905
f 904 905 906
f 906 905 907
f 907 905 908
f 906 909 904
f 902 901 910
f 910 901 911
f 910 911 892
f 892 894 899
f 899 894 897
f 899 910 892
f 912 891 838
f 838 891 889
f 838 889 834
f 834 889 887
f 835 840 834
f 834 840 838
f 838 837 912
f 912 837 913
f 871 870 851
f 851 870 914
f 851 914 846
f 846 914 915
f 846 915 844
f 915 914 912
f 912 914 916
f 912 916 895
f 895 891 912
f 912 913 915
f 839 915 837
f 837 915 913
f 844 915 845
f 845 915 839
f 845 839 878
f 878 839 833
f 878 833 882
f 882 833 843
f 917 918 875
f 875 918 866
f 919 917 876
f 876 917 875
f 920 919 864
f 864 919 876
f 918 920 866
f 866 920 864
f 873 861 921
f 921 861 922
f 861 862 922
f 922 862 923
f 874 873 924
f 924 873 921
f 862 874 923
f 923 874 924
f 923 924 922
f 922 924 921
f 893 896 801
f 801 896 803
f 896 897 803
f 803 897 810
f 803 810 829
f 829 810 812
f 829 812 830
f 830 812 793
f 830 793 792
f 898 902 812
f 812 902 793
f 829 805 803
f 894 893 808
f 808 893 801
f 808 801 828
f 828 801 800
f 828 831 808
f 808 831 814
f 814 831 795
f 814 795 899
f 899 795 910
f 831 797 795
f 897 894 810
f 810 894 808
f 899 898 814
f 814 898 812
f 902 910 793
f 793 910 795
f 888 890 886
f 886 890 925
f 890 892 925
f 925 892 926
f 892 911 926
f 926 911 927
f 911 901 927
f 927 901 928
f 901 904 928
f 928 904 929
f 904 909 929
f 929 909 930
f 909 906 930
f 930 906 931
f 906 907 931
f 931 907 932
f 907 908 932
f 932 908 933
f 908 905 933
f 933 905 934
f 905 903 934
f 934 903 935
f 903 900 935
f 935 900 936
f 900 895 936
f 936 895 916
f 870 865 914
f 914 865 937
f 865 863 937
f 937 863 938
f 863 869 938
f 938 869 939
f 869 860 939
f 939 860 940
f 860 857 940
f 940 857 941
f 857 855 941
f 941 855 942
f 871 879 867
f 867 879 884
f 867 884 943
f 943 884 885
f 879 871 849
f 849 871 851
f 849 851 850
f 879 880 884
f 868 867 944
f 944 867 943
f 872 868 945
f 945 868 944
f 859 872 946
f 946 872 945
f 858 859 947
f 947 859 946
f 856 858 948
f 948 858 947
f 791 856 790
f 790 856 948
f 773 774 776
f 776 774 777
f 781 771 852
f 852 771 767
f 852 767 768
f 781 772 771
f 771 775 767
f 767 775 949
f 765 767 770
f 770 767 949
f 766 769 768
f 768 769 950
f 768 950 853
f 853 852 768
f 854 853 951
f 951 853 950
f 855 854 942
f 942 854 951
f 952 953 954
f 954 953 955
f 956 952 957
f 957 952 954
f 958 956 959
f 959 956 957
f 953 958 955
f 955 958 959
f 959 938 955
f 955 938 769
f 955 769 770
f 957 914 959
f 959 914 937
f 959 937 938
f 957 954 914
f 914 954 916
f 916 954 936
f 936 954 955
f 936 955 933
f 933 955 932
f 932 955 931
f 931 955 777
f 931 777 930
f 930 777 778
f 930 778 788
f 942 951 941
f 941 951 940
f 940 951 939
f 939 951 950
f 939 950 769
f 949 775 770
f 770 775 776
f 770 776 955
f 955 776 777
f 930 788 929
f 929 788 789
f 929 789 928
f 928 789 927
f 927 789 790
f 927 790 948
f 927 948 926
f 926 948 947
f 926 947 925
f 925 947 886
f 886 947 946
f 886 946 945
f 944 943 945
f 945 943 885
f 945 885 886
f 933 934 936
f 936 934 935
f 938 939 769
f 953 920 958
f 958 920 918
f 958 918 917
f 920 953 919
f 919 953 952
f 919 952 956
f 919 956 917
f 917 956 958
f 960 961 962
f 962 961 963
f 964 960 965
f 965 960 962
f 966 964 967
f 967 964 965
f 968 966 969
f 969 966 967
f 970 968 971
f 971 968 969
f 961 970 963
f 963 970 971
f 962 963 965
f 965 963 971
f 965 971 967
f 967 971 969
f 968 970 966
f 966 970 961
f 966 961 964
f 964 961 960
f 972 973 974
f 974 973 975
f 976 972 977
f 977 972 974
f 978 976 979
f 979 976 977
f 980 978 981
f 981 978 979
f 982 980 983
f 983 980 981
f 973 982 975
f 975 982 983
f 974 975 977
f 977 975 983
f 977 983 979
f 979 983 981
f 980 982 978
f 978 982 973
f 978 973 976
f 976 973 972

